<?xml version="1.0" encoding="UTF-8" standalone="no"?>
<!-- Created with Inkscape (http://www.inkscape.org/) -->

<svg
   width="210mm"
   height="297mm"
   viewBox="0 0 210 297"
   version="1.1"
   id="svg5"
   xmlns="http://www.w3.org/2000/svg"
   xmlns:svg="http://www.w3.org/2000/svg">
  <defs
     id="defs2" />
  <g
     id="path1"
     style="display:inline">
    <path
       style="fill:#000000;stroke-width:0.264583"
       id="path173"
       d="m 57.308538,99.275798 c -0.238199,5.743982 -0.0901,11.495142 -0.02389,17.241432 0.115072,5.34582 0.01754,10.6923 0.0011,16.03855 0.07151,0.92929 0.121767,1.86046 0.21453,2.78787 0.172264,1.72229 0.470114,3.17649 0.558453,4.91088 0.168883,3.31582 0.03108,5.84677 0.01669,9.22861 -0.0077,1.81139 0.0131,3.6228 0.01963,5.4342 0.319477,8.88082 -0.273846,17.74507 -0.784,26.60464 -0.221321,4.49071 -0.344929,8.98538 -0.481978,13.4792 0,0 3.309173,1.69547 3.309173,1.69547 v 0 c 0.0649,-4.50432 0.16633,-9.00843 0.401637,-13.50765 0.441868,-8.89349 1.014172,-17.79219 0.639792,-26.70063 2.64e-4,-1.80474 -0.02758,-3.60971 0.0011,-5.41421 0.02286,-1.44138 0.282882,-7.36079 0.236429,-9.14975 -0.04551,-1.75268 -0.384556,-3.18743 -0.585491,-4.91863 -0.107056,-0.92236 -0.171021,-1.84921 -0.256532,-2.77381 -0.01212,-5.34162 0.260903,-10.68239 0.04619,-16.02244 -0.144937,-5.71448 -0.337659,-11.44815 0.125648,-17.15291 0,0 -3.438285,-1.780822 -3.438285,-1.780822 z" />
  </g>
  <g
     id="path2"
     style="display:inline">
    <path
       style="fill:#000000;stroke-width:0.264583"
       id="path176"
       d="m 57.842615,174.09832 c -1.61621,1.84901 -2.73589,4.06612 -3.973608,6.17157 -0.826719,1.46913 -1.627436,2.96242 -2.201248,4.55206 -1.825837,5.05812 0.884856,-2.15661 -0.818267,2.34316 -0.61355,1.4712 -1.478907,2.80495 -2.517526,4.00737 -0.780423,0.82394 -1.430282,1.74884 -2.382729,2.38349 -0.548669,0.27124 -0.265073,0.15767 -0.850934,0.34038 0,0 3.274285,2.21286 3.274285,2.21286 v 0 c 0.627583,-0.24644 0.325569,-0.10226 0.906634,-0.43131 0.945983,-0.6899 1.638242,-1.61788 2.424546,-2.47635 1.04883,-1.25159 1.940219,-2.62508 2.54131,-4.15076 0.555009,-1.51094 0.285036,-0.73193 0.805574,-2.33854 0.571101,-1.57082 1.357315,-3.05028 2.153571,-4.51513 1.204346,-2.08807 2.338753,-4.27037 4.013031,-6.03082 0,0 -3.374639,-2.06798 -3.374639,-2.06798 z" />
    <path
       style="fill:#000000;stroke-width:0.264583"
       id="path180"
       d="m 59.993286,178.33495 c 1.012915,2.14047 1.972969,4.29433 2.803308,6.51243 0.690454,1.97199 1.749692,3.76251 2.853798,5.5224 0.508659,0.83934 1.276983,1.45193 1.820648,2.26417 0.612249,1.05027 0.816002,2.26456 1.198663,3.40506 0,0 3.579384,1.66938 3.579384,1.66938 v 0 c -0.446791,-1.1408 -0.613529,-2.37098 -1.162925,-3.47167 -0.477129,-0.89043 -1.245312,-1.48506 -1.843133,-2.28471 -1.11624,-1.75144 -2.245677,-3.50125 -2.942823,-5.47494 -0.06623,-0.17648 -0.931412,-2.48561 -0.990639,-2.62818 -0.540737,-1.30166 -1.218817,-2.54616 -1.717556,-3.86603 0,0 -3.598725,-1.64791 -3.598725,-1.64791 z" />
    <path
       style="fill:#000000;stroke-width:0.264583"
       id="path182"
       d="m 72.222595,197.65984 c -0.297112,-1.31001 -0.489228,-2.65902 -1.005425,-3.90881 -0.394856,-0.956 -0.733941,-1.52693 -1.227738,-2.44418 -1.03959,-1.8464 -2.103207,-3.68277 -3.374501,-5.38105 -0.598771,-0.89648 -1.416492,-1.59344 -2.134452,-2.38316 -0.524169,-0.64503 -1.028671,-1.31191 -1.468252,-2.01776 0,0 -3.607935,-1.60745 -3.607935,-1.60745 v 0 c 0.396644,0.74948 0.937024,1.40673 1.44105,2.08632 0.673899,0.83605 1.55302,1.46543 2.153092,2.37217 1.34797,1.65186 2.407928,3.5086 3.468671,5.35185 1.126848,2.05244 1.93787,3.86423 2.208782,6.21825 0,0 3.546708,1.71382 3.546708,1.71382 z" />
    <path
       style="fill:#000000;stroke-width:0.264583"
       id="path184"
       d="m 59.338069,179.01784 c 0.537803,0.59855 0.939639,1.29573 1.362445,1.97526 0,0 3.609586,1.58814 3.609586,1.58814 v 0 c -0.440391,-0.67445 -0.813199,-1.39267 -1.324509,-2.01963 0,0 -3.647522,-1.54377 -3.647522,-1.54377 z" />
  </g>
  <g
     id="path3"
     style="display:inline">
    <path
       style="fill:#000000;stroke-width:0.264583"
       id="path189"
       d="m 62.575804,102.90974 c 3.277624,-0.199 6.459824,0.75346 9.632892,1.43365 6.658173,1.45892 13.45729,1.88348 20.244765,2.2237 4.955234,0.14852 9.919859,0.36775 14.872859,0.0605 2.23835,-0.43075 4.50476,-0.55652 6.77834,-0.56123 1.26449,0.0199 2.52895,0.0377 3.79355,0.0504 0,0 -3.18339,-2.3176 -3.18339,-2.3176 v 0 c -1.26043,-0.0119 -2.52075,-0.0448 -3.7813,-0.0318 -2.25915,0.0411 -4.50482,0.22283 -6.73194,0.6211 -4.896574,0.33759 -9.807955,0.17189 -14.708676,0.006 -6.791849,-0.3195 -13.591006,-0.79987 -20.243091,-2.2995 -3.254838,-0.72786 -6.50789,-1.66596 -9.875647,-1.51096 0,0 3.201638,2.32612 3.201638,2.32612 z" />
  </g>
  <g
     id="path4"
     style="display:inline">
    <path
       style="fill:#000000;stroke-width:0.264583"
       id="path192"
       d="m 116.43225,103.85783 c -0.18238,3.59798 -0.57975,7.18132 -0.92724,10.76605 -0.46512,4.00451 -0.64063,8.02403 -0.72267,12.05122 -0.0422,2.71929 -0.35567,5.42359 -0.43973,8.13976 0,0 3.46046,1.7764 3.46046,1.7764 v 0 c 0.0807,-2.72974 0.3313,-5.45164 0.36157,-8.18421 0.08,-4.02239 0.26726,-8.04151 0.66864,-12.04619 0.35265,-3.56198 0.79035,-7.11521 1.10231,-10.68114 0,0 -3.50334,-1.82189 -3.50334,-1.82189 z" />
  </g>
  <g
     id="path5"
     style="display:inline">
    <path
       style="fill:#000000;stroke-width:0.264583"
       id="path195"
       d="m 114.72323,132.82854 c -1.25556,0.0162 -2.5113,0.0168 -3.76696,0.0174 -0.3513,1.8e-4 -0.70416,-0.0336 -1.0539,-5.3e-4 -0.34655,0.0328 -0.68367,0.1315 -1.0255,0.19724 -0.35336,0.19687 -0.73189,0.35416 -1.06009,0.59061 -2.00469,1.44431 -3.26633,3.70169 -4.31164,5.87213 -1.00033,2.02882 -1.17698,4.06256 -1.04294,6.27755 0.289,1.37275 0.47062,2.8394 1.05087,4.13263 0.48843,1.08861 0.8165,1.39301 1.55047,2.34444 0.9575,1.09579 2.02611,2.07938 3.29375,2.80865 3.47232,1.99761 4.17511,2.51238 7.30274,3.46456 1.92126,0.58193 3.71618,0.56033 5.65057,0.0944 0.82763,-0.33287 1.87794,-0.58823 2.51915,-1.26587 0.39181,-0.41408 0.54653,-0.85515 0.78324,-1.36108 0.61848,-1.89105 0.71701,-3.91571 0.67975,-5.89129 -0.13127,-2.55722 -0.47695,-5.10833 -1.30494,-7.53678 -0.52942,-1.47868 -1.76048,-2.45806 -2.71833,-3.64543 -0.42381,-0.57009 -0.84584,-1.13844 -1.3021,-1.68285 0,0 -3.63295,-1.52843 -3.63295,-1.52843 v 0 c 0.49353,0.51662 0.91781,1.07875 1.32807,1.66444 0.46027,0.61319 0.95136,1.19831 1.49143,1.74439 0.152,0.15369 0.33573,0.2757 0.47709,0.43923 0.38079,0.44049 0.54748,0.84035 0.8171,1.35699 0.90674,2.37492 1.27413,4.89555 1.38106,7.42972 0.0168,1.9164 -0.032,3.87972 -0.63045,5.71756 -0.21748,0.46384 -0.32716,0.81433 -0.69553,1.17961 -0.62987,0.62461 -1.61124,0.85946 -2.41242,1.14623 -1.84857,0.37411 -3.68328,0.37059 -5.49287,-0.23016 -0.40642,-0.12969 -0.81775,-0.24489 -1.21925,-0.38909 -0.45518,-0.16347 -1.65578,-0.90758 -1.34934,-0.5334 0.48042,0.5866 1.28598,0.80412 1.91625,1.22562 0.41279,0.27606 -0.86044,-0.49921 -1.26361,-0.78915 -0.87806,-0.63149 -1.31258,-1.13509 -2.07249,-1.90191 -0.6868,-0.8353 -1.10881,-1.2403 -1.57597,-2.21097 -0.60398,-1.25494 -0.73919,-2.69792 -1.07699,-4.03151 -0.16741,-2.19683 -0.0507,-4.08607 0.90686,-6.1244 0.98592,-2.09242 2.20521,-4.33501 4.20189,-5.64577 0.31043,-0.20379 0.66938,-0.32173 1.00407,-0.4826 0.32818,-0.0485 0.65363,-0.12187 0.98453,-0.14559 0.34997,-0.0251 0.70174,-5.3e-4 1.05262,-5.3e-4 1.27165,5.3e-4 2.54339,0.001 3.81495,0.0174 0,0 -3.19819,-2.32362 -3.19819,-2.32362 z" />
  </g>
  <g
     id="path6"
     style="display:inline">
    <path
       style="fill:#000000;stroke-width:0.264583"
       id="path200"
       d="m 112.13085,156.43192 c -0.14752,2.74435 -0.3831,5.48243 -0.59438,8.22234 -0.2771,3.97455 -0.33775,7.96007 -0.65876,11.93185 -0.38797,3.61793 -0.49605,7.25797 -0.86719,10.87665 -0.17796,2.53132 -0.54196,5.03312 -0.99688,7.52686 -0.0564,0.26384 -0.11287,0.52767 -0.1693,0.79151 0,0 3.45407,1.85118 3.45407,1.85118 v 0 c 0.0558,-0.26935 0.11161,-0.53869 0.16742,-0.80804 0.41783,-2.51639 0.77586,-5.03584 0.9507,-7.58328 0.35024,-3.62803 0.4468,-7.27515 0.83682,-10.90053 0.31973,-3.96881 0.3827,-7.95441 0.67343,-11.92599 0.20673,-2.71984 0.47732,-5.43367 0.7119,-8.15095 0,0 -3.50783,-1.8316 -3.50783,-1.8316 z" />
  </g>
  <g
     id="path7"
     style="display:inline">
    <path
       style="fill:#000000;stroke-width:0.264583"
       id="path203"
       d="m 101.63789,173.07036 c 2.54461,-0.67097 5.20524,-0.35409 7.75415,0.12535 2.85116,0.65285 5.56292,1.75427 8.34455,2.63008 1.76511,0.60563 3.64325,0.5013 5.46547,0.76405 1.35566,0.26342 2.71412,0.38419 4.09144,0.31644 0.67821,-0.0406 1.34872,-0.13004 2.02722,-0.0803 0,0 -3.19317,-2.33532 -3.19317,-2.33532 v 0 c -0.67822,0.006 -1.35137,0.0781 -2.02857,0.11372 -1.36044,0.0397 -2.70008,-0.13898 -4.04095,-0.36192 -1.80421,-0.21211 -3.65145,-0.16928 -5.38679,-0.79181 -2.7667,-0.894 -5.48706,-1.94634 -8.33796,-2.56109 -2.62542,-0.44566 -5.29229,-0.69191 -7.919875,-0.11323 0,0 3.224485,2.29398 3.224485,2.29398 z" />
  </g>
  <g
     id="path8"
     style="display:inline">
    <path
       style="fill:#000000;stroke-width:0.264583"
       id="path206"
       d="m 108.32099,193.91204 c -2.05556,0.63976 -3.68665,2.04909 -5.24367,3.47983 -1.55936,1.46386 -2.96428,3.07269 -4.195912,4.8195 -0.54169,0.77615 -0.27491,0.41614 -0.794163,1.08457 0,0 3.387535,2.012 3.387535,2.012 v 0 c 0.50982,-0.69314 0.24647,-0.32484 0.78676,-1.10725 1.18867,-1.73815 2.56685,-3.33159 4.10395,-4.77267 1.54916,-1.39827 3.17451,-2.74303 5.23212,-3.29283 0,0 -3.27662,-2.22315 -3.27662,-2.22315 z" />
    <path
       style="fill:#000000;stroke-width:0.264583"
       id="path208"
       d="m 109.6701,196.0028 c 2.39084,2.25581 3.97454,5.21426 5.5637,8.0566 0.81644,1.56542 1.65559,3.11889 2.51694,4.66 0,0 3.54901,1.58343 3.54901,1.58343 v 0 c -0.88706,-1.54238 -1.73838,-3.10491 -2.56636,-4.67986 -0.91485,-1.63036 -1.8703,-3.23404 -2.86227,-4.81903 -0.332,-0.53048 -0.64745,-1.07276 -1.0133,-1.58048 -0.4744,-0.65838 -0.98798,-1.1443 -1.5478,-1.71296 0,0 -3.63992,-1.5077 -3.63992,-1.5077 z" />
  </g>
</svg>
